# Blender v2.71 (sub 0) OBJ File: 'CliffAvoidance.blend'
# www.blender.org
mtllib CliffAvoidance.mtl
o Arena
v -0.277773 -0.353049 -0.472509
v -0.423672 0.003147 -0.655742
v -0.588415 0.003147 0.822594
v -0.277773 -0.353049 -0.472509
v -0.588415 0.003147 0.822594
v -0.403943 -0.356187 0.672831
v -0.588415 0.003147 0.822594
v 0.392703 0.003147 0.934113
v 0.241051 -0.357474 0.745533
v -0.588415 0.003147 0.822594
v 0.241051 -0.357474 0.745533
v -0.403943 -0.356187 0.672831
v 0.392703 0.003147 0.934113
v 0.553406 0.003147 -0.541765
v 0.366920 -0.354344 -0.396702
v 0.392703 0.003147 0.934113
v 0.366920 -0.354344 -0.396702
v 0.241051 -0.357474 0.745533
v 0.366920 -0.354344 -0.396702
v 0.553406 0.003147 -0.541765
v -0.423672 0.003147 -0.655742
v 0.366920 -0.354344 -0.396702
v -0.423672 0.003147 -0.655742
v -0.277773 -0.353049 -0.472509
v 0.241051 -0.357474 0.745533
v 0.366920 -0.354344 -0.396702
v -0.277773 -0.353049 -0.472509
v 0.241051 -0.357474 0.745533
v -0.277773 -0.353049 -0.472509
v -0.403943 -0.356187 0.672831
vt 0.590350 0.064343
vt 0.741978 0.000265
vt 0.741978 0.574636
vt 0.999734 0.000265
vt 0.999735 0.532610
vt 0.871724 0.426387
vt 0.000265 0.679522
vt 0.342785 0.512018
vt 0.350778 0.679522
vt 0.351309 0.680053
vt 0.701821 0.680053
vt 0.476429 0.789666
vt 0.437017 0.573523
vt 0.437017 0.000265
vt 0.589819 0.063745
vt 0.742508 0.532450
vt 0.742509 0.000265
vt 0.871193 0.424924
vt 0.349538 0.680053
vt 0.349538 0.845516
vt 0.000265 0.696221
vt 0.700955 0.898771
vt 0.351309 0.898771
vt 0.475037 0.790197
vt 0.436486 0.511487
vt 0.218930 0.124751
vt 0.436486 0.000265
vt 0.000266 0.511487
vt 0.000265 0.000265
vt 0.218399 0.388059
vn 0.901500 0.420900 0.100500
vn 0.102100 0.426900 -0.898500
vn -0.898100 0.428800 -0.097800
vn -0.105100 0.420500 0.901200
vn 0.001700 1.000000 0.002900
usemtl None
s off
f 1/1/1 2/2/1 3/3/1
f 4/4/1 5/5/1 6/6/1
f 7/7/2 8/8/2 9/9/2
f 10/10/2 11/11/2 12/12/2
f 13/13/3 14/14/3 15/15/3
f 16/16/3 17/17/3 18/18/3
f 19/19/4 20/20/4 21/21/4
f 22/22/4 23/23/4 24/24/4
f 25/25/5 26/26/5 27/27/5
f 28/28/5 29/29/5 30/30/5
o Board
v -0.439612 -0.241578 0.153694
v -0.422218 -0.241578 0.010877
v 0.437811 -0.241578 0.115622
v 0.420417 -0.241578 0.258439
v -0.439612 -0.227191 0.153694
v -0.422218 -0.227191 0.010877
v 0.437811 -0.227191 0.115622
v 0.420417 -0.227191 0.258439
vt 0.333333 0.000000
vt 0.666667 0.000000
vt 0.666667 0.333333
vt 0.000000 0.333333
vt 0.333333 0.333333
vt 0.333333 0.666667
vt 0.000000 0.000000
vt 0.666667 0.666667
vt 1.000000 0.333333
vt 0.333333 1.000000
vt 0.000000 1.000000
vt 0.000000 0.666667
vt 1.000000 0.000000
vn -0.992700 0.000000 -0.120900
vn 0.120900 0.000000 -0.992700
vn 0.992700 0.000000 0.120900
vn -0.120900 0.000000 0.992700
vn 0.000000 -1.000000 -0.000000
vn 0.000000 1.000000 -0.000000
usemtl Material.001
s off
f 36/31/6 32/32/6 31/33/6
f 37/34/7 33/35/7 32/36/7
f 38/37/8 34/31/8 33/35/8
f 35/33/9 31/38/9 34/36/9
f 32/39/10 33/33/10 34/32/10
f 37/36/11 36/40/11 35/41/11
f 35/35/6 36/31/6 31/33/6
f 36/42/7 37/34/7 32/36/7
f 37/34/8 38/37/8 33/35/8
f 38/35/9 35/33/9 34/36/9
f 31/43/10 32/39/10 34/32/10
f 38/42/11 37/36/11 35/41/11
o DepthLeft
v -0.671056 -0.372055 0.849026
v -0.578417 -0.374544 0.065087
v 0.609795 -0.377462 0.205509
v 0.517156 -0.374974 0.989448
v -0.671027 -0.361449 0.848996
v -0.578388 -0.363938 0.065057
v 0.609824 -0.366856 0.205479
v 0.517185 -0.364367 0.989418
vt 0.333333 0.000000
vt 0.666667 0.000000
vt 0.666667 0.333333
vt 0.000000 0.666667
vt 0.000000 0.333333
vt 0.333333 0.333333
vt 0.000000 0.000000
vt 0.666667 0.666667
vt 0.333333 0.666667
vt 1.000000 0.333333
vt 0.333333 1.000000
vt 0.000000 1.000000
vt 1.000000 0.000000
vn -0.993100 0.002400 -0.117400
vn 0.117400 -0.003200 -0.993100
vn 0.993100 -0.002400 0.117400
vn -0.117400 0.003200 0.993100
vn -0.002800 -1.000000 0.002800
vn 0.002800 1.000000 -0.002800
usemtl Material
s off
f 44/44/12 40/45/12 39/46/12
f 44/47/13 45/48/13 41/49/13
f 46/50/14 42/44/14 41/49/14
f 43/46/15 39/51/15 42/52/15
f 40/53/16 41/46/16 42/45/16
f 45/52/17 44/54/17 43/55/17
f 43/49/12 44/44/12 39/46/12
f 40/52/13 44/47/13 41/49/13
f 45/48/14 46/50/14 41/49/14
f 46/49/15 43/46/15 42/52/15
f 39/56/16 40/53/16 42/45/16
f 46/47/17 45/52/17 43/55/17
o DepthRight
v -0.581103 -0.374627 0.063688
v -0.490398 -0.377064 -0.703885
v 0.697814 -0.379982 -0.563464
v 0.607109 -0.377545 0.204109
v -0.581073 -0.364021 0.063657
v -0.490368 -0.366458 -0.703915
v 0.697844 -0.369376 -0.563494
v 0.607139 -0.366939 0.204079
vt 0.333333 0.000000
vt 0.666667 0.000000
vt 0.666667 0.333333
vt 0.000000 0.333333
vt 0.333333 0.333333
vt 0.333333 0.666667
vt 0.000000 0.000000
vt 0.666667 0.666667
vt 1.000000 0.333333
vt 0.333333 1.000000
vt 0.000000 1.000000
vt 0.000000 0.666667
vt 1.000000 0.000000
vn -0.993100 0.002400 -0.117400
vn 0.117400 -0.003200 -0.993100
vn 0.993100 -0.002400 0.117400
vn -0.117400 0.003200 0.993100
vn -0.002800 -1.000000 0.002800
vn 0.002800 1.000000 -0.002800
usemtl Material
s off
f 52/57/18 48/58/18 47/59/18
f 53/60/19 49/61/19 48/62/19
f 54/63/20 50/57/20 49/61/20
f 54/61/21 51/59/21 47/64/21
f 48/65/22 49/59/22 50/58/22
f 53/62/23 52/66/23 51/67/23
f 51/61/18 52/57/18 47/59/18
f 52/68/19 53/60/19 48/62/19
f 53/60/20 54/63/20 49/61/20
f 50/62/21 54/61/21 47/64/21
f 47/69/22 48/65/22 50/58/22
f 54/68/23 53/62/23 51/67/23
o FakeArena
v 0.580083 -1.571401 -0.548745
v -0.421564 -1.568197 -0.663702
v -0.589911 -1.565701 0.827855
v 0.420315 -1.568922 0.940439
v -0.428466 0.041992 -0.680783
v 0.591690 0.041992 -0.561610
v -0.605172 0.041992 0.839707
v 0.415216 0.041992 0.960219
v -0.531011 -1.566949 0.069254
v 0.511386 -1.570162 0.213372
vt 0.503487 0.499099
vt 0.500211 0.999214
vt 0.835562 0.999214
vt 0.995589 0.000776
vt 0.747322 0.000378
vt 1.000000 0.499099
vt 0.000000 1.000000
vt 0.335475 0.999455
vt 0.335475 0.500089
vt 0.495619 0.000000
vt 0.245832 0.000374
vt 0.500211 0.500089
vt 0.832677 0.500086
vt 0.505496 0.000000
vt 0.500211 0.499099
vt 0.003593 0.501648
vt 0.006607 0.000762
vt 0.000000 0.500089
vn -0.116000 0.008800 0.993200
vn 0.997000 0.008900 0.077400
vn 0.117300 0.012600 -0.993000
vn -0.995900 0.006400 -0.089800
vn -0.114000 0.010000 0.993400
vn 0.989000 0.005800 0.147700
vn 0.110800 0.008400 -0.993800
vn -0.992200 -0.001600 -0.124300
vn 0.993300 -0.009500 0.115400
vn -0.993300 -0.005900 -0.115200
usemtl Material
s off
f 55/70/24 60/71/24 59/72/24
f 57/73/25 63/74/25 61/75/25
f 61/76/26 62/77/26 58/78/26
f 55/79/27 64/80/27 60/81/27
f 56/82/28 55/70/28 59/72/28
f 63/74/29 56/83/29 59/84/29
f 57/85/30 61/76/30 58/78/30
f 64/80/31 58/86/31 62/87/31
f 63/74/32 59/84/32 61/75/32
f 64/80/33 62/87/33 60/81/33
l 63 64
